Coordinates
version=1
nRows=27
nColumns=12
inDegrees=yes

Units are S.I. units (second, meters, Newtons, ...)
Angles are in degrees

endheader
time	SC_y	SC_z	SC_x	AC_y	AC_z	AC_x	GH_y	GH_z	GH_yy	EL_x	PS_y
       0.0              -12.18          29.48          3.461          33.68         -1.016         -13.02          32.36          33.31         -45.75           17.4          35.61
   0.02847              -12.19          29.48          3.467          33.68         -1.017         -13.02          32.35           33.3         -45.76           17.4          35.61
   0.05693              -12.19          29.48          3.473          33.69         -1.017         -13.02          32.34           33.3         -45.77           17.4          35.61
    0.0854               -12.2          29.48          3.479          33.69         -1.017         -13.02          32.33          33.29         -45.78           17.4          35.61
    0.1139              -12.21          29.48          3.487          33.69         -1.018         -13.02          32.32          33.28          -45.8           17.4          35.61
    0.1423              -12.22          29.48          3.494           33.7         -1.019         -13.02          32.31          33.28         -45.81          17.39          35.61
    0.1708              -12.23          29.48          3.502           33.7         -1.019         -13.02           32.3          33.27         -45.83          17.39          35.61
    0.1993              -12.24          29.48          3.511          33.71          -1.02         -13.02          32.29          33.26         -45.84          17.39          35.61
    0.2277              -12.25          29.48           3.52          33.71          -1.02         -13.02          32.28          33.25         -45.86          17.39          35.61
    0.2562              -12.26          29.48           3.53          33.72         -1.021         -13.01          32.26          33.24         -45.88          17.39          35.61
    0.2847              -12.27          29.47           3.54          33.72         -1.022         -13.01          32.25          33.23          -45.9          17.39          35.61
    0.3131              -12.28          29.47          3.552          33.73         -1.023         -13.01          32.23          33.22         -45.92          17.38          35.61
    0.3416               -12.3          29.47          3.564          33.73         -1.024         -13.01          32.22          33.21         -45.94          17.38          35.61
    0.3701              -12.31          29.47          3.578          33.74         -1.025         -13.01           32.2          33.19         -45.97          17.38           35.6
    0.3985              -12.33          29.47          3.592          33.75         -1.026         -13.01          32.18          33.18          -46.0          17.38           35.6
     0.427              -12.34          29.47          3.608          33.76         -1.027          -13.0          32.16          33.16         -46.03          17.37           35.6
    0.4555              -12.36          29.47          3.625          33.77         -1.028          -13.0          32.14          33.14         -46.06          17.37           35.6
    0.4839              -12.38          29.47          3.643          33.78          -1.03          -13.0          32.11          33.13          -46.1          17.37           35.6
    0.5124              -12.41          29.47          3.663          33.79         -1.031          -13.0          32.08          33.11         -46.13          17.36           35.6
    0.5409              -12.43          29.46          3.685           33.8         -1.033         -12.99          32.05          33.08         -46.18          17.36           35.6
    0.5693              -12.46          29.46           3.71          33.81         -1.035         -12.99          32.02          33.06         -46.22          17.36           35.6
    0.5978              -12.49          29.46          3.736          33.82         -1.037         -12.99          31.98          33.03         -46.27          17.35           35.6
    0.6263              -12.52          29.46          3.766          33.84         -1.039         -12.98          31.94           33.0         -46.33          17.35           35.6
    0.6547              -12.56          29.46          3.799          33.86         -1.041         -12.98           31.9          32.97         -46.39          17.34           35.6
    0.6832               -12.6          29.45          3.835          33.88         -1.044         -12.98          31.85          32.93         -46.46          17.33          35.59
    0.7117              -12.64          29.45          3.876           33.9         -1.047         -12.97           31.8          32.89         -46.54          17.33          35.59
    0.7401              -12.69          29.45          3.921          33.92          -1.05         -12.96          31.74          32.85         -46.63          17.32          35.59
